<svg width="11" height="20" viewBox="0 0 11 20" fill="none" xmlns="http://www.w3.org/2000/svg">
<path d="M3.14843 18.2341V11.2634H0.515438C0.378736 11.2634 0.247632 11.2084 0.150968 11.1104C0.0543051 11.0125 0 10.8796 0 10.7411V7.98406C0 7.84554 0.0543051 7.7127 0.150968 7.61475C0.247632 7.51681 0.378736 7.46178 0.515438 7.46178H3.13803V4.79289C3.07529 4.15998 3.15007 3.52083 3.35711 2.92032C3.56415 2.31981 3.89843 1.77252 4.33648 1.31688C4.77453 0.861237 5.30571 0.5083 5.89273 0.282855C6.47975 0.0574104 7.10836 -0.0350745 7.73441 0.0118967H9.92857C10.0666 0.0116226 10.1991 0.06633 10.2977 0.164216C10.3962 0.262103 10.4529 0.395322 10.4554 0.535133V2.86957C10.4524 3.00913 10.3956 3.14197 10.2971 3.2396C10.1986 3.33722 10.0663 3.39188 9.92857 3.39185H8.55722C7.07616 3.39185 6.79149 4.10291 6.79149 5.14843V7.46082H10.3125C10.3857 7.45836 10.4586 7.47209 10.526 7.50104C10.5934 7.53 10.6538 7.57349 10.7029 7.62848C10.7521 7.68348 10.7888 7.74867 10.8106 7.81951C10.8323 7.89034 10.8386 7.96514 10.8289 8.03868L10.5102 10.8063C10.4942 10.933 10.433 11.0495 10.338 11.1335C10.243 11.2176 10.1209 11.2635 9.99477 11.2624H6.81324V18.2332C6.81503 18.3563 6.79239 18.4786 6.74667 18.5927C6.70095 18.7068 6.63308 18.8105 6.54708 18.8975C6.46109 18.9846 6.35871 19.0533 6.24604 19.0995C6.13336 19.1457 6.01267 19.1685 5.89113 19.1666H4.05919C3.9386 19.1669 3.81914 19.143 3.70778 19.0961C3.59643 19.0492 3.49541 18.9803 3.41062 18.8934C3.32584 18.8065 3.25898 18.7034 3.21397 18.59C3.16895 18.4767 3.14667 18.3563 3.14843 18.2341Z" fill="#1D1918"/>
</svg>
