<svg width="17" height="21" viewBox="0 0 17 21" fill="none" xmlns="http://www.w3.org/2000/svg">
<mask id="mask0_2079_41" style="mask-type:luminance" maskUnits="userSpaceOnUse" x="0" y="0" width="17" height="21">
<path d="M8.125 20C8.125 20 15.25 14.3 15.25 8.125C15.25 4.1901 12.0599 1 8.125 1C4.1901 1 1 4.1901 1 8.125C1 14.3 8.125 20 8.125 20Z" fill="white" stroke="white" stroke-width="2" stroke-linejoin="round"/>
<path d="M8.12344 10.9734C8.4977 10.9734 8.86831 10.8997 9.21409 10.7565C9.55986 10.6133 9.87405 10.4033 10.1387 10.1387C10.4033 9.87405 10.6133 9.55986 10.7565 9.21409C10.8997 8.86831 10.9734 8.4977 10.9734 8.12344C10.9734 7.74917 10.8997 7.37857 10.7565 7.03279C10.6133 6.68701 10.4033 6.37283 10.1387 6.10818C9.87405 5.84354 9.55986 5.63361 9.21409 5.49038C8.86831 5.34716 8.4977 5.27344 8.12344 5.27344C7.36757 5.27344 6.64266 5.5737 6.10818 6.10818C5.5737 6.64266 5.27344 7.36757 5.27344 8.12344C5.27344 8.8793 5.5737 9.60421 6.10818 10.1387C6.64266 10.6732 7.36757 10.9734 8.12344 10.9734Z" fill="black" stroke="black" stroke-width="2" stroke-linejoin="round"/>
</mask>
<g mask="url(#mask0_2079_41)">
<path d="M-3.27344 -0.898438H19.5266V21.9016H-3.27344V-0.898438Z" fill="white" fill-opacity="0.8"/>
</g>
</svg>
