<svg width="32" height="30" viewBox="0 0 32 30" fill="none" xmlns="http://www.w3.org/2000/svg">
<path d="M16.2389 30C15.7867 30 15.4031 29.8342 15.0837 29.5041C14.7658 29.1725 14.6061 28.7727 14.6061 28.3048C14.6061 28.1126 14.6464 27.9127 14.7255 27.7067C14.8061 27.499 14.9255 27.3131 15.0837 27.1488L22.0493 19.9172C22.1821 19.7792 22.2478 19.6351 22.2478 19.4833C22.2478 19.3314 22.1821 19.1873 22.0493 19.0494C21.9164 18.9114 21.7776 18.8433 21.6313 18.8433C21.485 18.8433 21.3462 18.9114 21.2134 19.0494L14.2479 26.281C14.0896 26.4453 13.9165 26.5692 13.7314 26.6529C13.5449 26.735 13.3463 26.7769 13.1344 26.7769C12.6822 26.7769 12.3045 26.6173 12 26.3012C11.6941 25.9835 11.5418 25.5915 11.5418 25.1235C11.5418 24.8477 11.5821 24.6199 11.6612 24.4417C11.7404 24.2619 11.8463 24.1038 11.9792 23.9659L18.9447 16.7355C19.0775 16.5975 19.1432 16.4519 19.1432 16.3016C19.1432 16.1497 19.0775 16.004 18.9447 15.8677C18.8119 15.7297 18.673 15.66 18.5268 15.66C18.3805 15.66 18.2417 15.7297 18.1088 15.8677L11.1433 23.0577C10.9851 23.2219 10.8119 23.3459 10.6269 23.4296C10.4403 23.5117 10.2283 23.5535 9.98953 23.5535C9.56415 23.5535 9.19402 23.3877 8.87459 23.0577C8.55668 22.7261 8.39697 22.3402 8.39697 21.9001C8.39697 21.6801 8.43727 21.4725 8.51638 21.2803C8.59698 21.0866 8.71638 20.9084 8.87459 20.7426L15.8401 13.5121C15.973 13.3742 16.0386 13.2285 16.0386 13.0782C16.0386 12.9264 15.973 12.7807 15.8401 12.6443C15.7073 12.5064 15.5685 12.4367 15.4222 12.4367C15.2759 12.4367 15.1371 12.5064 15.0043 12.6443L8.07884 19.8748C7.94601 20.0127 7.78631 20.1227 7.60123 20.2064C7.41466 20.2885 7.1893 20.3304 6.92512 20.3304C6.47287 20.3304 6.09525 20.1785 5.79076 19.8748C5.48479 19.5726 5.33256 19.1868 5.33256 18.7188C5.33256 18.4972 5.37286 18.2911 5.45196 18.099C5.53107 17.9053 5.65047 17.7271 5.81017 17.5613L13.9296 9.13159C14.1416 8.91155 14.3998 8.80773 14.7057 8.82168C15.0102 8.83562 15.2699 8.95184 15.4818 9.17343L19.7402 13.5945C20.0328 13.8967 20.3582 14.1524 20.7164 14.3585C21.0746 14.5661 21.5044 14.6684 22.0089 14.6684C22.8582 14.6684 23.5746 14.3864 24.1582 13.8223C24.7417 13.2567 25.0343 12.4928 25.0343 11.529C25.0343 11.1432 24.9612 10.7635 24.8149 10.3916C24.6686 10.0197 24.4239 9.65555 24.0791 9.29762L18.4669 3.47102C18.0953 3.08518 17.8833 2.6296 17.8296 2.1074C17.7773 1.58365 17.9356 1.14201 18.3072 0.784079C18.5997 0.508256 18.9177 0.309915 19.2624 0.185949C19.6072 0.0619829 19.9654 0 20.3371 0C20.9475 0 21.5639 0.15031 22.1878 0.454013C22.8117 0.75618 23.3759 1.16992 23.8804 1.69367L30.606 8.71787C31.0836 9.21373 31.4358 9.76537 31.6612 10.3713C31.8866 10.9771 32 11.6791 32 12.4787C32 13.0288 31.8806 13.5867 31.6418 14.1523C31.403 14.7163 31.0567 15.2339 30.606 15.7018L17.352 29.5039C17.14 29.7239 16.9549 29.8618 16.7953 29.9161C16.6356 29.9718 16.4505 29.9997 16.2386 29.9997L16.2389 30ZM1.82988 16.6938C1.21941 16.1422 0.762693 15.5084 0.456714 14.7925C0.152233 14.0766 0 13.3328 0 12.5611C0 11.8452 0.125372 11.1634 0.377614 10.5157C0.629855 9.86795 1.0209 9.26982 1.55224 8.71819L8.27782 1.69398C8.72857 1.22601 9.22709 0.868074 9.77034 0.620143C10.3151 0.372211 10.8912 0.248245 11.5017 0.248245C12.1659 0.248245 12.8092 0.372211 13.433 0.620143C14.0554 0.868074 14.5928 1.22601 15.045 1.69398L23.2034 10.1653C23.39 10.3575 23.5422 10.5635 23.6616 10.7851C23.781 11.0052 23.8407 11.2531 23.8407 11.5289C23.8407 12.0511 23.6616 12.499 23.3034 12.8709C22.9452 13.2428 22.5139 13.4287 22.0094 13.4287C21.7184 13.4287 21.4527 13.3605 21.2139 13.2226C20.9751 13.0847 20.7497 12.9049 20.5378 12.6849L16.3183 8.30581C15.8676 7.83629 15.3094 7.60232 14.6467 7.60232C13.9825 7.60232 13.4258 7.83631 12.975 8.30581L4.73638 16.8593C4.36474 17.2435 3.90056 17.4093 3.34385 17.3551C2.78565 17.2993 2.28118 17.0793 1.83042 16.6934L1.82988 16.6938Z" fill="url(#paint0_linear_214_1131)"/>
<defs>
<linearGradient id="paint0_linear_214_1131" x1="16" y1="0" x2="16" y2="30" gradientUnits="userSpaceOnUse">
<stop stop-color="#31AA5B"/>
<stop offset="1" stop-color="#258A49"/>
</linearGradient>
</defs>
</svg>
