<svg width="29" height="27" viewBox="0 0 29 27" fill="none" xmlns="http://www.w3.org/2000/svg">
<path d="M27.8399 21.1313H23.1997C22.2768 21.1313 21.3916 20.7602 20.7389 20.0998C20.0863 19.4393 19.7196 18.5435 19.7196 17.6094C19.7196 16.6754 20.0863 15.7796 20.7389 15.1191C21.3916 14.4587 22.2768 14.0876 23.1997 14.0876H27.8399C28.1476 14.0876 28.4427 14.2113 28.6602 14.4314C28.8778 14.6516 29 14.9502 29 15.2615V19.9573C29 20.2687 28.8778 20.5673 28.6602 20.7874C28.4427 21.0076 28.1476 21.1313 27.8399 21.1313ZM23.1997 16.4355C22.8921 16.4355 22.597 16.5592 22.3795 16.7793C22.1619 16.9995 22.0397 17.2981 22.0397 17.6094C22.0397 17.9208 22.1619 18.2194 22.3795 18.4395C22.597 18.6597 22.8921 18.7834 23.1997 18.7834H26.6799V16.4355H23.1997Z" fill="url(#paint0_linear_214_1126)"/>
<path d="M20.8764 3.52113H17.199L20.1803 5.86902H20.8764C21.184 5.86902 21.4791 5.99271 21.6967 6.21287C21.9142 6.43302 22.0364 6.73162 22.0364 7.04297V8.21692H24.3565V7.04297C24.3565 6.10892 23.9899 5.21313 23.3372 4.55266C22.6846 3.89218 21.7994 3.52113 20.8764 3.52113Z" fill="url(#paint1_linear_214_1126)"/>
<path d="M4.87137 7.04309H19.7896L11.1472 0.245945C11.025 0.150103 10.8851 0.079959 10.7357 0.0396383C10.5862 -0.000682391 10.4304 -0.0103661 10.2772 0.0111561C10.1223 0.0341393 9.97351 0.0886335 9.83993 0.171354C9.70635 0.254075 9.59071 0.363309 9.49997 0.492474L4.87137 7.04309Z" fill="url(#paint2_linear_214_1126)"/>
<path d="M23.201 12.9126H27.8412V11.7387C27.8412 10.8047 27.4745 9.90886 26.8219 9.24838C26.1692 8.58791 25.284 8.21686 24.3611 8.21686H3.71216C3.37475 8.24319 3.0405 8.13525 2.78052 7.91601C2.52055 7.69676 2.35536 7.38352 2.3201 7.04292C2.3512 6.72615 2.49579 6.43186 2.7266 6.21558C2.95742 5.99931 3.25847 5.87601 3.57295 5.86897H4.28058L5.92786 3.52108H3.38735C2.48623 3.56268 1.63457 3.9499 1.0054 4.60405C0.376229 5.2582 0.0167498 6.13022 0 7.04292V23.4782C0 24.4122 0.366658 25.308 1.01931 25.9685C1.67197 26.629 2.55716 27 3.48015 27H24.3611C25.284 27 26.1692 26.629 26.8219 25.9685C27.4745 25.308 27.8412 24.4122 27.8412 23.4782V22.3042H23.201C21.9703 22.3042 20.7901 21.8095 19.9199 20.9289C19.0497 20.0482 18.5608 18.8538 18.5608 17.6084C18.5608 16.363 19.0497 15.1686 19.9199 14.288C20.7901 13.4074 21.9703 12.9126 23.201 12.9126Z" fill="url(#paint3_linear_214_1126)"/>
<defs>
<linearGradient id="paint0_linear_214_1126" x1="14.5" y1="0" x2="14.5" y2="27" gradientUnits="userSpaceOnUse">
<stop stop-color="#31AA5B"/>
<stop offset="1" stop-color="#258A49"/>
</linearGradient>
<linearGradient id="paint1_linear_214_1126" x1="14.5" y1="0" x2="14.5" y2="27" gradientUnits="userSpaceOnUse">
<stop stop-color="#31AA5B"/>
<stop offset="1" stop-color="#258A49"/>
</linearGradient>
<linearGradient id="paint2_linear_214_1126" x1="14.5" y1="0" x2="14.5" y2="27" gradientUnits="userSpaceOnUse">
<stop stop-color="#31AA5B"/>
<stop offset="1" stop-color="#258A49"/>
</linearGradient>
<linearGradient id="paint3_linear_214_1126" x1="14.5" y1="0" x2="14.5" y2="27" gradientUnits="userSpaceOnUse">
<stop stop-color="#31AA5B"/>
<stop offset="1" stop-color="#258A49"/>
</linearGradient>
</defs>
</svg>
