<svg width="28" height="30" viewBox="0 0 28 30" fill="none" xmlns="http://www.w3.org/2000/svg">
<path d="M7.34373 0C6.97557 0 6.67707 0.30525 6.67707 0.681818V4.43182C6.67707 4.80835 6.97557 5.11364 7.34373 5.11364C7.71193 5.11364 8.0104 4.80835 8.0104 4.43182V0.681818C8.0104 0.30525 7.71193 0 7.34373 0ZM20.6771 0C20.3089 0 20.0104 0.30525 20.0104 0.681818V4.43182C20.0104 4.80835 20.3089 5.11364 20.6771 5.11364C21.0453 5.11364 21.3437 4.80835 21.3437 4.43182V0.681818C21.3437 0.30525 21.0453 0 20.6771 0ZM2.67707 2.72727C1.19523 2.72727 0 3.94956 0 5.46518V11.5909H28V5.46518C28 3.94956 26.8047 2.72727 25.3229 2.72727H23.3333H22.0104V5.14558C22.8056 5.61944 23.3437 6.49732 23.3437 7.5C23.3437 8.99816 22.1421 10.2273 20.6771 10.2273C19.2123 10.2273 18.0104 8.99816 18.0104 7.5C18.0104 6.49732 18.5486 5.61944 19.3437 5.14558V2.72727H8.66667V5.13494C9.4687 5.60697 10.0104 6.4921 10.0104 7.5C10.0104 8.99816 8.80873 10.2273 7.34373 10.2273C5.87897 10.2273 4.67707 8.99816 4.67707 7.5C4.67707 6.50056 5.209 5.62053 6 5.14558V2.72727H2.67707ZM7.34373 6.13636C6.5996 6.13636 6.0104 6.73878 6.0104 7.5C6.0104 8.26118 6.5996 8.86364 7.34373 8.86364C8.088 8.86364 8.67707 8.26118 8.67707 7.5C8.67707 6.73878 8.088 6.13636 7.34373 6.13636ZM20.6771 6.13636C19.9329 6.13636 19.3437 6.73878 19.3437 7.5C19.3437 8.26118 19.9329 8.86364 20.6771 8.86364C21.4213 8.86364 22.0104 8.26118 22.0104 7.5C22.0104 6.73878 21.4213 6.13636 20.6771 6.13636ZM0 12.9545V27.2621C0 28.7777 1.1952 30 2.67707 30H25.3229C26.8047 30 28 28.7777 28 27.2621V12.9545H0Z" fill="url(#paint0_linear_214_1142)"/>
<defs>
<linearGradient id="paint0_linear_214_1142" x1="14" y1="0" x2="14" y2="30" gradientUnits="userSpaceOnUse">
<stop stop-color="#31AA5B"/>
<stop offset="1" stop-color="#258A49"/>
</linearGradient>
</defs>
</svg>
