<svg width="24" height="23" viewBox="0 0 24 23" fill="none" xmlns="http://www.w3.org/2000/svg">
<path d="M11.9697 0.178711L15.4697 7.36914L15.5156 7.46289V21.1006L12.0498 19.2539L11.8574 19.1514L11.665 19.2539L4.66598 22.9854C4.64519 22.9964 4.62152 23.0017 4.5986 23C4.57575 22.9983 4.55337 22.9897 4.53415 22.9756C4.51486 22.9614 4.49963 22.9415 4.4902 22.918C4.48075 22.8943 4.47798 22.8681 4.48239 22.8428V22.8408L5.81931 14.9365L5.85446 14.7266L5.70309 14.5771L0.0409847 8.98145C0.023374 8.96404 0.0100421 8.94133 0.00387537 8.91602C-0.00219337 8.89087 -0.00107321 8.8644 0.00680505 8.83984C0.0147194 8.81515 0.0291308 8.79329 0.0478207 8.77734C0.0663017 8.76162 0.0883753 8.75155 0.111297 8.74805L7.93552 7.59473L8.14841 7.56348L8.24313 7.36914L11.7451 0.178711L11.7461 0.176758C11.7568 0.154416 11.7732 0.136503 11.7929 0.124023C11.8126 0.111571 11.8349 0.104492 11.8574 0.104492C11.8798 0.104523 11.9023 0.111601 11.9218 0.124023C11.9414 0.136498 11.9581 0.154526 11.9687 0.176758L12.3369 0L11.9697 0.178711Z" fill="#F8BB1C"/>
<path d="M15.0205 7.58887L15.1152 7.78223L15.2305 8.01953L15.4912 8.05859L15.7051 8.08984L22.8037 9.13574L17.6602 14.2217L17.5088 14.3711L17.3232 14.5537L17.3672 14.8105L17.4023 15.0205L18.6143 22.1865L12.2852 18.8125L12.0928 18.71L11.8574 18.584L11.6221 18.71L11.4297 18.8125L5.09961 22.1865L6.31152 15.0195L6.34766 14.8105L6.39062 14.5537L6.20605 14.3711L6.05469 14.2217L0.908203 9.13574L8.00781 8.08984L8.22168 8.05859L8.48242 8.01953L8.59766 7.78223L8.69238 7.58887L11.8564 1.08887L15.0205 7.58887Z" stroke="#F8BB1C"/>
</svg>
