<svg width="24" height="24" viewBox="0 0 24 24" fill="none" xmlns="http://www.w3.org/2000/svg">
<path fill-rule="evenodd" clip-rule="evenodd" d="M16.6761 2.62902C13.5299 1.92574 10.2672 1.92574 7.12106 2.62902L6.78206 2.70402C5.89684 2.90135 5.08375 3.3405 4.43332 3.97256C3.7829 4.60463 3.32065 5.40481 3.09806 6.28402C2.30195 9.42672 2.30195 12.7183 3.09806 15.861C3.31036 16.6995 3.74083 17.4669 4.34573 18.0851C4.95063 18.7034 5.70841 19.1505 6.54206 19.381L7.00706 22.157C7.0219 22.2452 7.06011 22.3277 7.11769 22.3961C7.17528 22.4645 7.25014 22.5162 7.33448 22.5458C7.41883 22.5754 7.50957 22.5818 7.59725 22.5645C7.68494 22.5471 7.76637 22.5065 7.83306 22.447L10.5641 20.004C12.6141 20.1278 14.6714 19.9639 16.6761 19.517L17.0161 19.442C17.9013 19.2447 18.7144 18.8055 19.3648 18.1735C20.0152 17.5414 20.4775 16.7412 20.7001 15.862C21.4962 12.7193 21.4962 9.42772 20.7001 6.28502C20.4774 5.40568 20.015 4.60541 19.3644 3.97334C18.7138 3.34126 17.9005 2.90219 17.0151 2.70502L16.6761 2.62902ZM7.96506 6.20302C7.7792 6.17581 7.58964 6.21323 7.42806 6.30902H7.41406C7.03906 6.52902 6.70106 6.80602 6.41306 7.13202C6.17306 7.40902 6.04306 7.68902 6.00906 7.95902C5.98906 8.11902 6.00306 8.28102 6.05006 8.43402L6.06806 8.44402C6.33806 9.23702 6.69006 10 7.12006 10.718C7.67476 11.7264 8.35704 12.659 9.15006 13.493L9.17406 13.527L9.21206 13.555L9.23506 13.582L9.26306 13.606C10.1 14.4014 11.0349 15.0869 12.0451 15.646C13.2001 16.275 13.9011 16.572 14.3221 16.696V16.702C14.4451 16.74 14.5571 16.757 14.6701 16.757C15.0288 16.7313 15.3684 16.5854 15.6341 16.343C15.9591 16.055 16.2341 15.716 16.4481 15.339V15.332C16.6491 14.952 16.5811 14.594 16.2911 14.351C15.709 13.8414 15.0791 13.3893 14.4101 13.001C13.9621 12.758 13.5071 12.905 13.3231 13.151L12.9301 13.647C12.7281 13.893 12.3621 13.859 12.3621 13.859L12.3521 13.865C9.62106 13.168 8.89206 10.403 8.89206 10.403C8.89206 10.403 8.85806 10.027 9.11106 9.83502L9.60306 9.43902C9.83906 9.24702 10.0031 8.79302 9.75006 8.34502C9.36264 7.67645 8.91154 7.04686 8.40306 6.46502C8.29183 6.3284 8.13606 6.23529 7.96306 6.20202M12.5791 5.00102C12.4465 5.00102 12.3193 5.0537 12.2255 5.14747C12.1317 5.24124 12.0791 5.36841 12.0791 5.50102C12.0791 5.63363 12.1317 5.76081 12.2255 5.85458C12.3193 5.94834 12.4465 6.00102 12.5791 6.00102C13.8441 6.00102 14.8941 6.41402 15.7251 7.20602C16.1521 7.63902 16.4851 8.15202 16.7031 8.71402C16.9221 9.27702 17.0221 9.87802 16.9961 10.48C16.9933 10.5457 17.0035 10.6112 17.0261 10.673C17.0487 10.7347 17.0832 10.7913 17.1277 10.8397C17.2175 10.9374 17.3425 10.9955 17.4751 11.001C17.6077 11.0066 17.7371 10.9593 17.8348 10.8694C17.9325 10.7796 17.9905 10.6546 17.9961 10.522C18.0259 9.78158 17.903 9.04292 17.6351 8.35202C17.3659 7.65761 16.9559 7.02638 16.4311 6.49802L16.4211 6.48802C15.3901 5.50302 14.0851 5.00102 12.5791 5.00102ZM12.5451 6.64502C12.4125 6.64502 12.2853 6.6977 12.1915 6.79147C12.0977 6.88524 12.0451 7.01241 12.0451 7.14502C12.0451 7.27763 12.0977 7.40481 12.1915 7.49858C12.2853 7.59234 12.4125 7.64502 12.5451 7.64502H12.5621C13.4741 7.71002 14.1381 8.01402 14.6031 8.51302C15.0801 9.02702 15.3271 9.66602 15.3081 10.456C15.305 10.5886 15.3548 10.717 15.4464 10.8129C15.538 10.9089 15.664 10.9645 15.7966 10.9675C15.9292 10.9706 16.0576 10.9208 16.1535 10.8292C16.2494 10.7376 16.305 10.6116 16.3081 10.479C16.3321 9.44202 15.9981 8.54702 15.3361 7.83302V7.83102C14.6591 7.10502 13.7301 6.72102 12.6121 6.64602L12.5951 6.64402L12.5451 6.64502ZM12.5261 8.32002C12.4591 8.31412 12.3917 8.32176 12.3278 8.34248C12.2639 8.36321 12.2049 8.3966 12.1542 8.44066C12.1035 8.48472 12.0622 8.53854 12.0327 8.59892C12.0033 8.6593 11.9863 8.72499 11.9828 8.79207C11.9793 8.85915 11.9894 8.92625 12.0124 8.98936C12.0354 9.05247 12.0709 9.1103 12.1167 9.15939C12.1626 9.20848 12.2178 9.24782 12.2792 9.27508C12.3406 9.30234 12.4069 9.31694 12.4741 9.31802C12.8921 9.34002 13.1591 9.46602 13.3271 9.63502C13.4961 9.80502 13.6221 10.078 13.6451 10.505C13.6463 10.5721 13.6611 10.6383 13.6884 10.6996C13.7158 10.7608 13.7552 10.816 13.8043 10.8617C13.8534 10.9074 13.9113 10.9428 13.9743 10.9657C14.0374 10.9886 14.1045 10.9986 14.1715 10.995C14.2385 10.9915 14.3041 10.9744 14.3644 10.945C14.4247 10.9155 14.4785 10.8742 14.5225 10.8236C14.5665 10.7729 14.5998 10.7139 14.6206 10.6501C14.6413 10.5862 14.6489 10.5189 14.6431 10.452C14.6111 9.85202 14.4231 9.32202 14.0381 8.93202C13.6511 8.54202 13.1241 8.35202 12.5261 8.32002Z" fill="#1D1918"/>
</svg>
